<mxfile host="app.diagrams.net" agent="Mozilla/5.0 (Windows NT 10.0; Win64; x64) AppleWebKit/537.36 (KHTML, like Gecko) Chrome/137.0.0.0 Safari/537.36" version="27.1.4">
  <diagram name="ページ1" id="kL-LR7i6_pVcXipzNAIo">
    <mxGraphModel dx="1182" dy="1026" grid="1" gridSize="10" guides="1" tooltips="1" connect="1" arrows="1" fold="1" page="1" pageScale="1" pageWidth="1169" pageHeight="827" math="0" shadow="0">
      <root>
        <mxCell id="0" />
        <mxCell id="1" parent="0" />
        <mxCell id="QQLQETNSgTJX-q5ma2Hl-1" value="差分に対しての許容&lt;div&gt;～イノベーター理論～&lt;/div&gt;" style="text;html=1;align=center;verticalAlign=middle;whiteSpace=wrap;rounded=0;fillColor=#dae8fc;strokeColor=#6c8ebf;" vertex="1" parent="1">
          <mxGeometry x="80" y="40" width="200" height="40" as="geometry" />
        </mxCell>
        <mxCell id="QQLQETNSgTJX-q5ma2Hl-2" value="" style="endArrow=none;dashed=1;html=1;dashPattern=1 3;strokeWidth=2;rounded=0;" edge="1" parent="1">
          <mxGeometry width="50" height="50" relative="1" as="geometry">
            <mxPoint x="302" y="400" as="sourcePoint" />
            <mxPoint x="742" y="400" as="targetPoint" />
          </mxGeometry>
        </mxCell>
        <mxCell id="QQLQETNSgTJX-q5ma2Hl-3" value="イノベーター" style="text;html=1;align=center;verticalAlign=middle;whiteSpace=wrap;rounded=0;fontSize=9;fillColor=#d5e8d4;strokeColor=#82b366;" vertex="1" parent="1">
          <mxGeometry x="647" y="330" width="60" height="60" as="geometry" />
        </mxCell>
        <mxCell id="QQLQETNSgTJX-q5ma2Hl-4" value="" style="endArrow=none;dashed=1;html=1;dashPattern=1 3;strokeWidth=2;rounded=0;" edge="1" parent="1">
          <mxGeometry width="50" height="50" relative="1" as="geometry">
            <mxPoint x="477" y="580" as="sourcePoint" />
            <mxPoint x="477" y="140" as="targetPoint" />
          </mxGeometry>
        </mxCell>
        <mxCell id="QQLQETNSgTJX-q5ma2Hl-5" value="" style="endArrow=none;dashed=1;html=1;dashPattern=1 3;strokeWidth=2;rounded=0;" edge="1" parent="1">
          <mxGeometry width="50" height="50" relative="1" as="geometry">
            <mxPoint x="302" y="320" as="sourcePoint" />
            <mxPoint x="742" y="320" as="targetPoint" />
          </mxGeometry>
        </mxCell>
        <mxCell id="QQLQETNSgTJX-q5ma2Hl-6" value="" style="endArrow=none;dashed=1;html=1;dashPattern=1 3;strokeWidth=2;rounded=0;" edge="1" parent="1">
          <mxGeometry width="50" height="50" relative="1" as="geometry">
            <mxPoint x="302" y="240" as="sourcePoint" />
            <mxPoint x="742" y="240" as="targetPoint" />
          </mxGeometry>
        </mxCell>
        <mxCell id="QQLQETNSgTJX-q5ma2Hl-7" value="" style="endArrow=none;dashed=1;html=1;dashPattern=1 3;strokeWidth=2;rounded=0;" edge="1" parent="1">
          <mxGeometry width="50" height="50" relative="1" as="geometry">
            <mxPoint x="302" y="160" as="sourcePoint" />
            <mxPoint x="742" y="160" as="targetPoint" />
          </mxGeometry>
        </mxCell>
        <mxCell id="QQLQETNSgTJX-q5ma2Hl-8" value="" style="endArrow=none;dashed=1;html=1;dashPattern=1 3;strokeWidth=2;rounded=0;" edge="1" parent="1">
          <mxGeometry width="50" height="50" relative="1" as="geometry">
            <mxPoint x="302" y="480" as="sourcePoint" />
            <mxPoint x="742" y="480" as="targetPoint" />
          </mxGeometry>
        </mxCell>
        <mxCell id="QQLQETNSgTJX-q5ma2Hl-9" value="" style="endArrow=none;dashed=1;html=1;dashPattern=1 3;strokeWidth=2;rounded=0;" edge="1" parent="1">
          <mxGeometry width="50" height="50" relative="1" as="geometry">
            <mxPoint x="302" y="560" as="sourcePoint" />
            <mxPoint x="742" y="560" as="targetPoint" />
          </mxGeometry>
        </mxCell>
        <mxCell id="QQLQETNSgTJX-q5ma2Hl-11" value="" style="endArrow=none;dashed=1;html=1;dashPattern=1 3;strokeWidth=2;rounded=0;" edge="1" parent="1">
          <mxGeometry width="50" height="50" relative="1" as="geometry">
            <mxPoint x="397" y="580" as="sourcePoint" />
            <mxPoint x="397" y="140" as="targetPoint" />
          </mxGeometry>
        </mxCell>
        <mxCell id="QQLQETNSgTJX-q5ma2Hl-12" value="" style="endArrow=none;dashed=1;html=1;dashPattern=1 3;strokeWidth=2;rounded=0;" edge="1" parent="1">
          <mxGeometry width="50" height="50" relative="1" as="geometry">
            <mxPoint x="317" y="580" as="sourcePoint" />
            <mxPoint x="317" y="140" as="targetPoint" />
          </mxGeometry>
        </mxCell>
        <mxCell id="QQLQETNSgTJX-q5ma2Hl-13" value="" style="endArrow=none;dashed=1;html=1;dashPattern=1 3;strokeWidth=2;rounded=0;" edge="1" parent="1">
          <mxGeometry width="50" height="50" relative="1" as="geometry">
            <mxPoint x="557" y="580" as="sourcePoint" />
            <mxPoint x="557" y="140" as="targetPoint" />
          </mxGeometry>
        </mxCell>
        <mxCell id="QQLQETNSgTJX-q5ma2Hl-14" value="" style="endArrow=none;dashed=1;html=1;dashPattern=1 3;strokeWidth=2;rounded=0;" edge="1" parent="1">
          <mxGeometry width="50" height="50" relative="1" as="geometry">
            <mxPoint x="637" y="580" as="sourcePoint" />
            <mxPoint x="637" y="140" as="targetPoint" />
          </mxGeometry>
        </mxCell>
        <mxCell id="QQLQETNSgTJX-q5ma2Hl-15" value="" style="endArrow=none;dashed=1;html=1;dashPattern=1 3;strokeWidth=2;rounded=0;" edge="1" parent="1">
          <mxGeometry width="50" height="50" relative="1" as="geometry">
            <mxPoint x="717" y="580" as="sourcePoint" />
            <mxPoint x="717" y="140" as="targetPoint" />
          </mxGeometry>
        </mxCell>
        <mxCell id="QQLQETNSgTJX-q5ma2Hl-16" value="社会の&lt;div&gt;許容状態&lt;/div&gt;" style="text;html=1;align=center;verticalAlign=middle;whiteSpace=wrap;rounded=0;" vertex="1" parent="1">
          <mxGeometry x="20" y="345" width="60" height="30" as="geometry" />
        </mxCell>
        <mxCell id="QQLQETNSgTJX-q5ma2Hl-17" value="個人の&lt;div&gt;許容状態&lt;/div&gt;" style="text;html=1;align=center;verticalAlign=middle;whiteSpace=wrap;rounded=0;" vertex="1" parent="1">
          <mxGeometry x="487" y="610" width="60" height="30" as="geometry" />
        </mxCell>
        <mxCell id="QQLQETNSgTJX-q5ma2Hl-18" value="推奨&lt;div&gt;(+2)&lt;/div&gt;" style="text;html=1;align=center;verticalAlign=middle;whiteSpace=wrap;rounded=0;" vertex="1" parent="1">
          <mxGeometry x="647" y="570" width="60" height="30" as="geometry" />
        </mxCell>
        <mxCell id="QQLQETNSgTJX-q5ma2Hl-19" value="許容&lt;div&gt;(+1)&lt;/div&gt;" style="text;html=1;align=center;verticalAlign=middle;whiteSpace=wrap;rounded=0;" vertex="1" parent="1">
          <mxGeometry x="567" y="570" width="60" height="30" as="geometry" />
        </mxCell>
        <mxCell id="QQLQETNSgTJX-q5ma2Hl-20" value="未知数&lt;div&gt;(0)&lt;/div&gt;" style="text;html=1;align=center;verticalAlign=middle;whiteSpace=wrap;rounded=0;" vertex="1" parent="1">
          <mxGeometry x="487" y="570" width="60" height="30" as="geometry" />
        </mxCell>
        <mxCell id="QQLQETNSgTJX-q5ma2Hl-21" value="許容外&lt;div&gt;(-1)&lt;/div&gt;" style="text;html=1;align=center;verticalAlign=middle;whiteSpace=wrap;rounded=0;" vertex="1" parent="1">
          <mxGeometry x="407" y="570" width="60" height="30" as="geometry" />
        </mxCell>
        <mxCell id="QQLQETNSgTJX-q5ma2Hl-22" value="拒否&lt;div&gt;(-2)&lt;/div&gt;" style="text;html=1;align=center;verticalAlign=middle;whiteSpace=wrap;rounded=0;" vertex="1" parent="1">
          <mxGeometry x="327" y="570" width="60" height="30" as="geometry" />
        </mxCell>
        <mxCell id="QQLQETNSgTJX-q5ma2Hl-23" value="アーリー&lt;div&gt;アダプター&lt;/div&gt;" style="text;html=1;align=center;verticalAlign=middle;whiteSpace=wrap;rounded=0;fontSize=9;" vertex="1" parent="1">
          <mxGeometry x="567" y="330" width="60" height="60" as="geometry" />
        </mxCell>
        <mxCell id="QQLQETNSgTJX-q5ma2Hl-24" value="アーリー&lt;br&gt;&lt;div&gt;マジョリティ&lt;/div&gt;" style="text;html=1;align=center;verticalAlign=middle;whiteSpace=wrap;rounded=0;fontSize=9;" vertex="1" parent="1">
          <mxGeometry x="487" y="330" width="60" height="60" as="geometry" />
        </mxCell>
        <mxCell id="QQLQETNSgTJX-q5ma2Hl-25" value="アーリー&lt;br&gt;&lt;div&gt;マジョリティ&lt;/div&gt;" style="text;html=1;align=center;verticalAlign=middle;whiteSpace=wrap;rounded=0;fontSize=9;" vertex="1" parent="1">
          <mxGeometry x="407" y="330" width="60" height="60" as="geometry" />
        </mxCell>
        <mxCell id="QQLQETNSgTJX-q5ma2Hl-26" value="拒否&lt;div&gt;(-2)&lt;/div&gt;" style="text;html=1;align=center;verticalAlign=middle;whiteSpace=wrap;rounded=0;" vertex="1" parent="1">
          <mxGeometry x="90" y="510" width="60" height="30" as="geometry" />
        </mxCell>
        <mxCell id="QQLQETNSgTJX-q5ma2Hl-27" value="許容外&lt;div&gt;(-1)&lt;/div&gt;" style="text;html=1;align=center;verticalAlign=middle;whiteSpace=wrap;rounded=0;" vertex="1" parent="1">
          <mxGeometry x="90" y="430" width="60" height="30" as="geometry" />
        </mxCell>
        <mxCell id="QQLQETNSgTJX-q5ma2Hl-28" value="未知数&lt;div&gt;(0)&lt;/div&gt;" style="text;html=1;align=center;verticalAlign=middle;whiteSpace=wrap;rounded=0;" vertex="1" parent="1">
          <mxGeometry x="90" y="345" width="60" height="30" as="geometry" />
        </mxCell>
        <mxCell id="QQLQETNSgTJX-q5ma2Hl-29" value="許容&lt;div&gt;(+1)&lt;/div&gt;" style="text;html=1;align=center;verticalAlign=middle;whiteSpace=wrap;rounded=0;" vertex="1" parent="1">
          <mxGeometry x="90" y="270" width="60" height="30" as="geometry" />
        </mxCell>
        <mxCell id="QQLQETNSgTJX-q5ma2Hl-30" value="推奨&lt;div&gt;(+2)&lt;/div&gt;" style="text;html=1;align=center;verticalAlign=middle;whiteSpace=wrap;rounded=0;" vertex="1" parent="1">
          <mxGeometry x="90" y="180" width="60" height="30" as="geometry" />
        </mxCell>
        <mxCell id="QQLQETNSgTJX-q5ma2Hl-31" value="ラガード" style="text;html=1;align=center;verticalAlign=middle;whiteSpace=wrap;rounded=0;fontSize=9;" vertex="1" parent="1">
          <mxGeometry x="327" y="330" width="60" height="60" as="geometry" />
        </mxCell>
        <mxCell id="QQLQETNSgTJX-q5ma2Hl-32" value="アーリー&lt;div&gt;アダプター&lt;/div&gt;" style="text;html=1;align=center;verticalAlign=middle;whiteSpace=wrap;rounded=0;fontSize=9;fillColor=#d5e8d4;strokeColor=#82b366;" vertex="1" parent="1">
          <mxGeometry x="647" y="250" width="60" height="60" as="geometry" />
        </mxCell>
        <mxCell id="QQLQETNSgTJX-q5ma2Hl-33" value="アーリー&lt;br&gt;&lt;div&gt;マジョリティ&lt;/div&gt;" style="text;html=1;align=center;verticalAlign=middle;whiteSpace=wrap;rounded=0;fontSize=9;" vertex="1" parent="1">
          <mxGeometry x="567" y="250" width="60" height="60" as="geometry" />
        </mxCell>
        <mxCell id="QQLQETNSgTJX-q5ma2Hl-34" value="アーリー&lt;br&gt;&lt;div&gt;マジョリティ&lt;/div&gt;" style="text;html=1;align=center;verticalAlign=middle;whiteSpace=wrap;rounded=0;fontSize=9;" vertex="1" parent="1">
          <mxGeometry x="487" y="250" width="60" height="60" as="geometry" />
        </mxCell>
        <mxCell id="QQLQETNSgTJX-q5ma2Hl-35" value="ラガード" style="text;html=1;align=center;verticalAlign=middle;whiteSpace=wrap;rounded=0;fontSize=9;" vertex="1" parent="1">
          <mxGeometry x="407" y="250" width="60" height="60" as="geometry" />
        </mxCell>
        <mxCell id="QQLQETNSgTJX-q5ma2Hl-36" value="イノベーター" style="text;html=1;align=center;verticalAlign=middle;whiteSpace=wrap;rounded=0;fontSize=9;fillColor=#f5f5f5;fontColor=#333333;strokeColor=#666666;" vertex="1" parent="1">
          <mxGeometry x="807" y="170" width="60" height="60" as="geometry" />
        </mxCell>
        <mxCell id="QQLQETNSgTJX-q5ma2Hl-37" value="思想家" style="text;html=1;align=center;verticalAlign=middle;whiteSpace=wrap;rounded=0;fontSize=9;fillColor=#fff2cc;strokeColor=#d6b656;" vertex="1" parent="1">
          <mxGeometry x="327" y="250" width="60" height="60" as="geometry" />
        </mxCell>
        <mxCell id="QQLQETNSgTJX-q5ma2Hl-38" value="思想家" style="text;html=1;align=center;verticalAlign=middle;whiteSpace=wrap;rounded=0;fontSize=9;fillColor=#fff2cc;strokeColor=#d6b656;" vertex="1" parent="1">
          <mxGeometry x="407" y="170" width="60" height="60" as="geometry" />
        </mxCell>
        <mxCell id="QQLQETNSgTJX-q5ma2Hl-39" value="アーリー&lt;br&gt;&lt;div&gt;マジョリティ&lt;/div&gt;" style="text;html=1;align=center;verticalAlign=middle;whiteSpace=wrap;rounded=0;fontSize=9;fillColor=#d5e8d4;strokeColor=#82b366;" vertex="1" parent="1">
          <mxGeometry x="647" y="170" width="60" height="60" as="geometry" />
        </mxCell>
        <mxCell id="QQLQETNSgTJX-q5ma2Hl-40" value="アーリー&lt;br&gt;&lt;div&gt;マジョリティ&lt;/div&gt;" style="text;html=1;align=center;verticalAlign=middle;whiteSpace=wrap;rounded=0;fontSize=9;" vertex="1" parent="1">
          <mxGeometry x="567" y="170" width="60" height="60" as="geometry" />
        </mxCell>
        <mxCell id="QQLQETNSgTJX-q5ma2Hl-41" value="ラガード" style="text;html=1;align=center;verticalAlign=middle;whiteSpace=wrap;rounded=0;fontSize=9;" vertex="1" parent="1">
          <mxGeometry x="487" y="170" width="60" height="60" as="geometry" />
        </mxCell>
        <mxCell id="QQLQETNSgTJX-q5ma2Hl-42" value="アーリー&lt;div&gt;アダプター&lt;/div&gt;" style="text;html=1;align=center;verticalAlign=middle;whiteSpace=wrap;rounded=0;fontSize=9;fillColor=#f5f5f5;fontColor=#333333;strokeColor=#666666;" vertex="1" parent="1">
          <mxGeometry x="727" y="170" width="60" height="60" as="geometry" />
        </mxCell>
        <mxCell id="QQLQETNSgTJX-q5ma2Hl-45" value="社会運動家" style="text;html=1;align=center;verticalAlign=middle;whiteSpace=wrap;rounded=0;fontSize=9;fillColor=#f8cecc;strokeColor=#b85450;" vertex="1" parent="1">
          <mxGeometry x="327" y="170" width="60" height="60" as="geometry" />
        </mxCell>
        <mxCell id="QQLQETNSgTJX-q5ma2Hl-46" value="イノベーター" style="text;html=1;align=center;verticalAlign=middle;whiteSpace=wrap;rounded=0;fontSize=9;" vertex="1" parent="1">
          <mxGeometry x="567" y="410" width="60" height="60" as="geometry" />
        </mxCell>
        <mxCell id="QQLQETNSgTJX-q5ma2Hl-47" value="アーリー&lt;div&gt;アダプター&lt;/div&gt;" style="text;html=1;align=center;verticalAlign=middle;whiteSpace=wrap;rounded=0;fontSize=9;" vertex="1" parent="1">
          <mxGeometry x="487" y="410" width="60" height="60" as="geometry" />
        </mxCell>
        <mxCell id="QQLQETNSgTJX-q5ma2Hl-48" value="アーリー&lt;br&gt;&lt;div&gt;マジョリティ&lt;/div&gt;" style="text;html=1;align=center;verticalAlign=middle;whiteSpace=wrap;rounded=0;fontSize=9;" vertex="1" parent="1">
          <mxGeometry x="407" y="410" width="60" height="60" as="geometry" />
        </mxCell>
        <mxCell id="QQLQETNSgTJX-q5ma2Hl-49" value="アーリー&lt;br&gt;&lt;div&gt;マジョリティ&lt;/div&gt;" style="text;html=1;align=center;verticalAlign=middle;whiteSpace=wrap;rounded=0;fontSize=9;" vertex="1" parent="1">
          <mxGeometry x="327" y="410" width="60" height="60" as="geometry" />
        </mxCell>
        <mxCell id="QQLQETNSgTJX-q5ma2Hl-50" value="思想家" style="text;html=1;align=center;verticalAlign=middle;whiteSpace=wrap;rounded=0;fontSize=9;fillColor=#fff2cc;strokeColor=#d6b656;" vertex="1" parent="1">
          <mxGeometry x="647" y="410" width="60" height="60" as="geometry" />
        </mxCell>
        <mxCell id="QQLQETNSgTJX-q5ma2Hl-51" value="思想家" style="text;html=1;align=center;verticalAlign=middle;whiteSpace=wrap;rounded=0;fontSize=9;fillColor=#fff2cc;strokeColor=#d6b656;" vertex="1" parent="1">
          <mxGeometry x="567" y="490" width="60" height="60" as="geometry" />
        </mxCell>
        <mxCell id="QQLQETNSgTJX-q5ma2Hl-52" value="社会運動家" style="text;html=1;align=center;verticalAlign=middle;whiteSpace=wrap;rounded=0;fontSize=9;fillColor=#f8cecc;strokeColor=#b85450;" vertex="1" parent="1">
          <mxGeometry x="647" y="490" width="60" height="60" as="geometry" />
        </mxCell>
        <mxCell id="QQLQETNSgTJX-q5ma2Hl-53" value="思想家" style="text;html=1;align=center;verticalAlign=middle;whiteSpace=wrap;rounded=0;fontSize=9;fillColor=#f5f5f5;strokeColor=#666666;fontColor=#333333;" vertex="1" parent="1">
          <mxGeometry x="727" y="330" width="60" height="60" as="geometry" />
        </mxCell>
        <mxCell id="QQLQETNSgTJX-q5ma2Hl-54" value="社会運動家" style="text;html=1;align=center;verticalAlign=middle;whiteSpace=wrap;rounded=0;fontSize=9;fillColor=#f5f5f5;strokeColor=#666666;fontColor=#333333;" vertex="1" parent="1">
          <mxGeometry x="727" y="410" width="60" height="60" as="geometry" />
        </mxCell>
        <mxCell id="QQLQETNSgTJX-q5ma2Hl-55" value="社会運動家" style="text;html=1;align=center;verticalAlign=middle;whiteSpace=wrap;rounded=0;fontSize=9;fillColor=#f5f5f5;strokeColor=#666666;fontColor=#333333;" vertex="1" parent="1">
          <mxGeometry x="807" y="330" width="60" height="60" as="geometry" />
        </mxCell>
        <mxCell id="QQLQETNSgTJX-q5ma2Hl-56" value="イノベーター" style="text;html=1;align=center;verticalAlign=middle;whiteSpace=wrap;rounded=0;fontSize=9;fillColor=#f5f5f5;fontColor=#333333;strokeColor=#666666;" vertex="1" parent="1">
          <mxGeometry x="727" y="250" width="60" height="60" as="geometry" />
        </mxCell>
        <mxCell id="QQLQETNSgTJX-q5ma2Hl-57" value="思想家" style="text;html=1;align=center;verticalAlign=middle;whiteSpace=wrap;rounded=0;fontSize=9;fillColor=#f5f5f5;strokeColor=#666666;fontColor=#333333;" vertex="1" parent="1">
          <mxGeometry x="807" y="250" width="60" height="60" as="geometry" />
        </mxCell>
        <mxCell id="QQLQETNSgTJX-q5ma2Hl-58" value="イノベーター" style="text;html=1;align=center;verticalAlign=middle;whiteSpace=wrap;rounded=0;fontSize=9;" vertex="1" parent="1">
          <mxGeometry x="487" y="490" width="60" height="60" as="geometry" />
        </mxCell>
        <mxCell id="QQLQETNSgTJX-q5ma2Hl-59" value="アーリー&lt;div&gt;アダプター&lt;/div&gt;" style="text;html=1;align=center;verticalAlign=middle;whiteSpace=wrap;rounded=0;fontSize=9;" vertex="1" parent="1">
          <mxGeometry x="407" y="490" width="60" height="60" as="geometry" />
        </mxCell>
        <mxCell id="QQLQETNSgTJX-q5ma2Hl-60" value="アーリー&lt;br&gt;&lt;div&gt;マジョリティ&lt;/div&gt;" style="text;html=1;align=center;verticalAlign=middle;whiteSpace=wrap;rounded=0;fontSize=9;" vertex="1" parent="1">
          <mxGeometry x="327" y="490" width="60" height="60" as="geometry" />
        </mxCell>
        <mxCell id="QQLQETNSgTJX-q5ma2Hl-61" value="思想家" style="text;html=1;align=center;verticalAlign=middle;whiteSpace=wrap;rounded=0;fontSize=9;fillColor=#f5f5f5;strokeColor=#666666;fontColor=#333333;" vertex="1" parent="1">
          <mxGeometry x="250" y="330" width="60" height="60" as="geometry" />
        </mxCell>
        <mxCell id="QQLQETNSgTJX-q5ma2Hl-62" value="社会運動家" style="text;html=1;align=center;verticalAlign=middle;whiteSpace=wrap;rounded=0;fontSize=9;fillColor=#f5f5f5;strokeColor=#666666;fontColor=#333333;" vertex="1" parent="1">
          <mxGeometry x="170" y="330" width="60" height="60" as="geometry" />
        </mxCell>
        <mxCell id="QQLQETNSgTJX-q5ma2Hl-63" value="社会運動家" style="text;html=1;align=center;verticalAlign=middle;whiteSpace=wrap;rounded=0;fontSize=9;fillColor=#f5f5f5;strokeColor=#666666;fontColor=#333333;" vertex="1" parent="1">
          <mxGeometry x="250" y="250" width="60" height="60" as="geometry" />
        </mxCell>
        <mxCell id="QQLQETNSgTJX-q5ma2Hl-64" value="ラガード" style="text;html=1;align=center;verticalAlign=middle;whiteSpace=wrap;rounded=0;fontSize=9;fillColor=#f5f5f5;fontColor=#333333;strokeColor=#666666;" vertex="1" parent="1">
          <mxGeometry x="250" y="410" width="60" height="60" as="geometry" />
        </mxCell>
        <mxCell id="QQLQETNSgTJX-q5ma2Hl-65" value="ラガード" style="text;html=1;align=center;verticalAlign=middle;whiteSpace=wrap;rounded=0;fontSize=9;fillColor=#f5f5f5;fontColor=#333333;strokeColor=#666666;" vertex="1" parent="1">
          <mxGeometry x="170" y="490" width="60" height="60" as="geometry" />
        </mxCell>
        <mxCell id="QQLQETNSgTJX-q5ma2Hl-66" value="アーリー&lt;br&gt;&lt;div&gt;マジョリティ&lt;/div&gt;" style="text;html=1;align=center;verticalAlign=middle;whiteSpace=wrap;rounded=0;fontSize=9;fillColor=#f5f5f5;fontColor=#333333;strokeColor=#666666;" vertex="1" parent="1">
          <mxGeometry x="250" y="490" width="60" height="60" as="geometry" />
        </mxCell>
        <mxCell id="QQLQETNSgTJX-q5ma2Hl-67" value="思想家" style="text;html=1;align=center;verticalAlign=middle;whiteSpace=wrap;rounded=0;fontSize=9;fillColor=#f5f5f5;strokeColor=#666666;fontColor=#333333;" vertex="1" parent="1">
          <mxGeometry x="170" y="410" width="60" height="60" as="geometry" />
        </mxCell>
      </root>
    </mxGraphModel>
  </diagram>
</mxfile>
